<?xml version="1.0" encoding="utf-8"?>
<!-- Generator: Adobe Illustrator 25.0.0, SVG Export Plug-In . SVG Version: 6.00 Build 0)  -->
<svg version="1.1" id="Layer_1" xmlns="http://www.w3.org/2000/svg" xmlns:xlink="http://www.w3.org/1999/xlink" x="0px" y="0px"
	 viewBox="0 0 445.5 512" style="enable-background:new 0 0 445.5 512;" xml:space="preserve">
<style type="text/css">
	.st0{fill:#4ED17D;stroke:url(#SVGID_1_);stroke-width:6;stroke-miterlimit:10;}
	.st1{fill:#4ED17D;stroke:url(#SVGID_2_);stroke-width:6;stroke-miterlimit:10;}
	.st2{fill:#4ED17D;stroke:url(#SVGID_3_);stroke-width:6;stroke-miterlimit:10;}
	.st3{fill:#4ED17D;stroke:url(#SVGID_4_);stroke-width:6;stroke-miterlimit:10;}
	.st4{fill:#4ED17D;stroke:url(#SVGID_5_);stroke-width:6;stroke-miterlimit:10;}
	.st5{fill:#4ED17D;stroke:url(#SVGID_6_);stroke-width:6;stroke-miterlimit:10;}
	.st6{fill:#4ED17D;stroke:url(#SVGID_7_);stroke-width:6;stroke-miterlimit:10;}
	.st7{fill:#4ED17D;stroke:url(#SVGID_8_);stroke-width:6;stroke-miterlimit:10;}
	.st8{fill:url(#SVGID_9_);}
	.st9{fill:#1B8766;}
	.st10{fill:#08FFE6;}
	.st11{fill:#000CE4;}
	.st12{fill:#4493FF;}
	.st13{fill:#3EC0FF;}
	.st14{fill:#6F7FFF;}
	.st15{fill:url(#SVGID_10_);}
</style>
<g>
	
		<linearGradient id="SVGID_1_" gradientUnits="userSpaceOnUse" x1="71.1186" y1="262.5446" x2="94.4988" y2="262.5446" gradientTransform="matrix(1 0 0 -1 0 438.7)">
		<stop  offset="0" style="stop-color:#00A204"/>
		<stop  offset="1" style="stop-color:#FDFDFD"/>
	</linearGradient>
	<path class="st0" d="M90.4,168.1l-7,8.1l7,8c0.1,0.1,0.2,0.2,0.2,0.3c1.3,1.8,0.9,4.3-0.9,5.6c-1.7,1.2-4,1-5.4-0.6l-9.3-10.7
		c-1.3-1.5-1.3-3.8,0-5.3l9.3-10.7l0.2-0.3c1.6-1.5,4.1-1.5,5.7,0.1C91.7,164.2,91.8,166.6,90.4,168.1L90.4,168.1z"/>
	
		<linearGradient id="SVGID_2_" gradientUnits="userSpaceOnUse" x1="97.4046" y1="262.4812" x2="120.6656" y2="262.4812" gradientTransform="matrix(1 0 0 -1 0 438.7)">
		<stop  offset="0" style="stop-color:#00A204"/>
		<stop  offset="1" style="stop-color:#FDFDFD"/>
	</linearGradient>
	<path class="st1" d="M101.4,184.2l7-8.1l-7-8.1c-1.4-1.7-1.1-4.3,0.7-5.6c1.6-1.3,3.9-1.1,5.3,0.4l9.3,10.7c1.3,1.5,1.3,3.8,0,5.3
		l-9.2,10.7l0,0c-1.4,1.7-4,1.8-5.6,0.4l0,0C100.1,188.4,99.9,185.9,101.4,184.2C101.4,184.2,101.4,184.2,101.4,184.2z"/>
	
		<linearGradient id="SVGID_3_" gradientUnits="userSpaceOnUse" x1="164.4019" y1="234.3331" x2="198.457" y2="234.3331" gradientTransform="matrix(1 0 0 -1 0 438.7)">
		<stop  offset="0" style="stop-color:#00A204"/>
		<stop  offset="1" style="stop-color:#FDFDFD"/>
	</linearGradient>
	<path class="st2" d="M171.2,208.4c-2.2,0-4-1.8-4-4c0-2.2,1.8-4,4-4h20c0.1,0,0.2,0,0.3,0c2.2,0.1,3.9,2,3.8,4.2
		c-0.1,2.2-2,3.9-4.2,3.8H171.2z"/>
	
		<linearGradient id="SVGID_4_" gradientUnits="userSpaceOnUse" x1="236.7201" y1="152.6711" x2="288.1728" y2="152.6711" gradientTransform="matrix(1 0 0 -1 0 438.7)">
		<stop  offset="0" style="stop-color:#00A204"/>
		<stop  offset="1" style="stop-color:#FDFDFD"/>
	</linearGradient>
	<path class="st3" d="M281.3,284.7c2.2,0,4,1.8,4,4s-1.8,4-4,4c-4.6,0-7.1-2.1-8.8-3.6c-1.4-1.2-2-1.7-3.6-1.7
		c-1.6,0-2.3,0.5-3.6,1.7c-1.8,1.5-4.3,3.6-8.8,3.6c-4.6,0-7.1-2.1-8.8-3.6c-1.4-1.2-2-1.7-3.6-1.7h-0.3c-2.2-0.1-3.9-2-3.8-4.2
		c0.1-2.2,2-3.9,4.2-3.8c4.6,0,7.1,2.1,8.8,3.6c1.4,1.2,2,1.7,3.6,1.7c1.6,0,2.3-0.5,3.6-1.7c2.3-2.3,5.5-3.7,8.8-3.7
		c4.6,0,7.1,2.1,8.8,3.6C279.1,284.2,279.7,284.7,281.3,284.7z"/>
	
		<linearGradient id="SVGID_5_" gradientUnits="userSpaceOnUse" x1="259.6481" y1="323.0191" x2="289.142" y2="323.0191" gradientTransform="matrix(1 0 0 -1 0 438.7)">
		<stop  offset="0" style="stop-color:#00A204"/>
		<stop  offset="1" style="stop-color:#FDFDFD"/>
	</linearGradient>
	<path class="st4" d="M262.7,115.5c0.1-2.2,2-3.9,4.2-3.8h15.3c2.2-0.1,4.1,1.6,4.2,3.8c0.1,2.2-1.6,4.1-3.8,4.2c-0.1,0-0.3,0-0.4,0
		h-15.3c-0.1,0-0.2,0-0.3,0C264.3,119.6,262.6,117.7,262.7,115.5C262.7,115.5,262.7,115.5,262.7,115.5z"/>
	
		<linearGradient id="SVGID_6_" gradientUnits="userSpaceOnUse" x1="236.7197" y1="170.1803" x2="313.4901" y2="170.1803" gradientTransform="matrix(1 0 0 -1 0 438.7)">
		<stop  offset="0" style="stop-color:#00A204"/>
		<stop  offset="1" style="stop-color:#FDFDFD"/>
	</linearGradient>
	<path class="st5" d="M290.2,271.6c-2.3,2.3-5.5,3.6-8.8,3.6c-4.6,0-7.1-2.1-8.8-3.6c-1.4-1.2-2-1.7-3.6-1.7c-1.6,0-2.3,0.5-3.6,1.7
		c-1.8,1.5-4.3,3.6-8.8,3.6c-4.6,0-7.1-2.1-8.8-3.6c-1.4-1.2-2-1.7-3.6-1.7h-0.3c-2.2,0-4-1.9-3.9-4.1s1.9-4,4.1-3.9
		c0.1,0,0.1,0,0.2,0c4.6,0,7.1,2.1,8.8,3.6c1.4,1.2,2,1.7,3.6,1.7c1.6,0,2.3-0.5,3.6-1.7c2.3-2.3,5.5-3.6,8.8-3.6
		c4.6,0,7.1,2.1,8.8,3.6c1.4,1.2,2,1.7,3.6,1.7s2.3-0.5,3.6-1.7c1.8-1.5,4.3-3.6,8.8-3.6s7.1,2.1,8.8,3.6c1.4,1.2,2,1.7,3.6,1.7h0.3
		c2.2,0.1,3.9,2,3.8,4.2c-0.1,2.2-2,3.9-4.2,3.8c-4.6,0-7-2.1-8.8-3.6c-1.4-1.2-2-1.7-3.6-1.7S291.6,270.4,290.2,271.6z"/>
	
		<linearGradient id="SVGID_7_" gradientUnits="userSpaceOnUse" x1="259.6489" y1="339.8987" x2="316.6005" y2="339.8987" gradientTransform="matrix(1 0 0 -1 0 438.7)">
		<stop  offset="0" style="stop-color:#00A204"/>
		<stop  offset="1" style="stop-color:#FDFDFD"/>
	</linearGradient>
	<path class="st6" d="M262.7,98.6c0.1-2.2,2-3.9,4.2-3.8c0,0,0,0,0,0h42.9c2.2,0,4,1.8,4,4c0,2.2-1.8,4-4,4h-43.3
		C264.3,102.7,262.6,100.8,262.7,98.6z"/>
	
		<linearGradient id="SVGID_8_" gradientUnits="userSpaceOnUse" x1="233.3974" y1="218.5399" x2="316.7837" y2="218.5399" gradientTransform="matrix(1 0 0 -1 0 438.7)">
		<stop  offset="0" style="stop-color:#00A204"/>
		<stop  offset="1" style="stop-color:#FDFDFD"/>
	</linearGradient>
	<polygon class="st7" points="313.8,253.7 236.4,185.8 236.4,183 313.8,183 	"/>
	
		<linearGradient id="SVGID_9_" gradientUnits="userSpaceOnUse" x1="91.5067" y1="220.35" x2="334.0663" y2="220.35" gradientTransform="matrix(1 0 0 -1 0 438.7)">
		<stop  offset="0" style="stop-color:#0067BF"/>
		<stop  offset="1" style="stop-color:#00D4CB"/>
	</linearGradient>
	<path class="st8" d="M330,232.7c2.2,0,4-1.8,4-4c0,0,0,0,0,0v-83.4c0-8.3-6.7-15-15-15h-71.4V92.8c0-6.3-5.2-11.5-11.5-11.5H134.5
		c-6.3,0-11.5,5.2-11.5,11.5V200H95.7c-2.2-0.1-4.1,1.6-4.2,3.8c-0.1,2.2,1.6,4.1,3.8,4.2c0.1,0,0.2,0,0.3,0H123v8.5H95.7
		c-2.2-0.1-4.1,1.6-4.2,3.8c-0.1,2.2,1.6,4.1,3.8,4.2c0.1,0,0.2,0,0.3,0H123v1.6c0.1,2.2,2,3.9,4.2,3.8c2.1-0.1,3.7-1.8,3.8-3.8
		v-1.6h21.6c2.2,0.1,4.1-1.6,4.2-3.8c0.1-2.2-1.6-4.1-3.8-4.2l0,0c-0.1,0-0.2,0-0.3,0H131V208h21.6c2.2,0.1,4.1-1.6,4.2-3.8
		c0.1-2.2-1.6-4.1-3.8-4.2h-22V92.8c0-1.9,1.5-3.5,3.5-3.5h101.7c1.9,0,3.5,1.6,3.5,3.5v37.5h-10v-25.5c0-3.4-2.8-6.1-6.1-6.1l0,0
		h-76.3c-3.4,0-6.1,2.8-6.1,6.1v54.4c0,3.4,2.8,6.1,6.1,6.2h44.7c2.2-0.1,3.9-2,3.8-4.2c-0.1-2.1-1.8-3.7-3.8-3.8h-34.5l28-20.4
		l24.1,17.5v104.5h-74.9c-1.9,0-3.5-1.5-3.5-3.5v-9.7c0.1-2.2-1.6-4.1-3.8-4.2c-2.2-0.1-4.1,1.6-4.2,3.8l0,0c0,0.1,0,0.2,0,0.3v9.7
		c0,6.3,5.1,11.5,11.5,11.5h74.9v73.3c0,8.3,6.7,15,15,15H319c8.3,0,15-6.7,15-15v-91c0.1-2.2-1.6-4.1-3.8-4.2
		c-2.2-0.1-4.1,1.6-4.2,3.8c0,0.1,0,0.3,0,0.4v57.3H217.4V170.5h108.7v58.2C326.1,230.9,327.8,232.7,330,232.7z M149,153.5v-42.9
		l29.5,21.5L149,153.5z M157.4,106.7h55.9l-28,20.4L157.4,106.7z M326.1,314.6v25.7c0,3.8-3.1,7-7,7h-94.7c-3.9,0-7-3.1-7-7v-25.7
		L326.1,314.6z M209.4,144.6L192.1,132l29.5-21.5v20C214.8,131.9,209.7,137.7,209.4,144.6z M217.4,145.1v0.2c0-3.9,3.1-7,7-7H319
		c3.8,0,7,3.1,7,7v-0.1L217.4,145.1z"/>
	<circle class="st9" cx="274.9" cy="332.2" r="7.2"/>
	<path class="st10" d="M313.6,98.6c0.1,2.2-1.6,4.1-3.8,4.2c0,0,0,0,0,0h-43.3c-2.2-0.1-3.9-2-3.8-4.2c0.1-2.2,2-3.9,4.2-3.8h42.9
		C311.8,94.9,313.5,96.5,313.6,98.6z"/>
	<path class="st11" d="M286.1,115.7c0,2.2-1.8,4-4,4h-15.3c-0.1,0-0.2,0-0.3,0c-2.2-0.1-3.9-2-3.8-4.2c0.1-2.2,2-3.9,4.2-3.8h15.3
		C284.3,111.7,286.1,113.5,286.1,115.7z"/>
	<path class="st10" d="M90.6,184.5c1.3,1.8,0.9,4.3-0.9,5.6c-1.7,1.2-4,1-5.4-0.6l-9.3-10.7c-1.3-1.5-1.3-3.8,0-5.3l9.3-10.7
		l0.2-0.3c1.6-1.5,4.1-1.5,5.7,0.1c1.4,1.5,1.5,3.9,0.1,5.4l-7,8.1l7,8C90.5,184.3,90.5,184.4,90.6,184.5z"/>
	<path class="st10" d="M116.7,178.8l-9.3,10.7l0,0c-1.4,1.7-4,1.8-5.6,0.4l0,0c-1.6-1.5-1.8-4-0.3-5.6l6.9-8.1l-7-8.1
		c-1.4-1.7-1.1-4.3,0.7-5.6c1.6-1.3,3.9-1.1,5.3,0.4l9.3,10.7C118,175,118,177.3,116.7,178.8z"/>
	<path class="st12" d="M310.5,271.4c-0.1,2.2-2,3.9-4.2,3.8c0,0,0,0,0,0c-4.6,0-7-2.1-8.8-3.6c-1.4-1.2-2-1.7-3.6-1.7
		s-2.3,0.5-3.6,1.7c-2.3,2.3-5.5,3.6-8.8,3.6c-4.6,0-7.1-2.1-8.8-3.6c-1.4-1.2-2-1.7-3.6-1.7c-1.6,0-2.3,0.5-3.6,1.7
		c-1.8,1.5-4.3,3.6-8.8,3.6c-4.6,0-7.1-2.1-8.8-3.6c-1.4-1.2-2-1.7-3.6-1.7h-0.3c-2.2,0-4-1.9-3.9-4.1c0-2.2,1.9-4,4.1-3.9
		c0.1,0,0.1,0,0.2,0c4.6,0,7.1,2.1,8.8,3.6c1.4,1.2,2,1.7,3.6,1.7c1.6,0,2.3-0.5,3.6-1.7c2.3-2.3,5.5-3.6,8.8-3.6
		c4.6,0,7.1,2.1,8.8,3.6c1.4,1.2,2,1.7,3.6,1.7s2.3-0.5,3.6-1.7c1.8-1.5,4.3-3.6,8.8-3.6s7.1,2.1,8.8,3.6c1.4,1.2,2,1.7,3.6,1.7h0.3
		C308.9,267.3,310.6,269.2,310.5,271.4z"/>
	<path class="st13" d="M285.2,288.5c0.1,2.2-1.6,4.1-3.8,4.2c0,0,0,0,0,0c-4.6,0-7.1-2.1-8.8-3.6c-1.4-1.2-2-1.7-3.6-1.7
		c-1.6,0-2.3,0.5-3.6,1.7c-1.8,1.5-4.3,3.6-8.8,3.6c-4.6,0-7.1-2.1-8.8-3.6c-1.4-1.2-2-1.7-3.6-1.7h-0.3c-2.2-0.1-3.9-2-3.8-4.2
		c0.1-2.2,2-3.9,4.2-3.8c4.6,0,7.1,2.1,8.8,3.6c1.4,1.2,2,1.7,3.6,1.7c1.6,0,2.3-0.5,3.6-1.7c2.3-2.3,5.5-3.7,8.8-3.7
		c4.6,0,7.1,2.1,8.8,3.6c1.4,1.2,2,1.7,3.6,1.7C283.4,284.8,285.1,286.4,285.2,288.5z"/>
	<path class="st9" d="M195.4,204.5c-0.1,2.2-2,3.9-4.2,3.8c0,0,0,0,0,0h-20c-2.2,0-4-1.8-4-4c0-2.2,1.8-4,4-4h20c0.1,0,0.2,0,0.3,0
		C193.8,200.5,195.5,202.3,195.4,204.5z"/>
	<polygon class="st14" points="313.8,183 313.8,253.7 236.4,185.8 236.4,183 	"/>
</g>
<linearGradient id="SVGID_10_" gradientUnits="userSpaceOnUse" x1="222.7497" y1="0" x2="222.7497" y2="512">
	<stop  offset="0" style="stop-color:#0067BF"/>
	<stop  offset="1" style="stop-color:#00D4CB"/>
</linearGradient>
<path class="st15" d="M280.9,437.8c94.8-25.6,164.6-112.2,164.6-215.1C445.5,99.7,345.8,0,222.7,0S0,99.7,0,222.8
	c0,101.9,68.4,187.8,161.8,214.3l61.5,74.9L280.9,437.8z M42.2,222.8c0-99.7,80.8-180.5,180.5-180.5s180.5,80.8,180.5,180.5
	s-80.8,180.5-180.5,180.5S42.2,322.5,42.2,222.8z"/>
</svg>
