<svg id="Layer_1" data-name="Layer 1" xmlns="http://www.w3.org/2000/svg" xmlns:xlink="http://www.w3.org/1999/xlink" viewBox="0 0 512 512"><defs><style>.cls-1{fill:url(#linear-gradient);}.cls-2{fill:url(#linear-gradient-2);}.cls-3{fill:#24b8ff;}.cls-4{fill:#06fff2;}.cls-5{fill:#0067bf;}.cls-6{fill:#b7c5ff;}.cls-7{fill:#6da6bc;}.cls-8{fill:#c3ffeb;}.cls-9{fill:#02ffb3;}.cls-10{fill:#8399fe;}.cls-11{fill:#0f646d;}.cls-12{fill:#1c303f;}.cls-13{fill:#146656;}.cls-14{fill:url(#linear-gradient-3);}</style><linearGradient id="linear-gradient" x1="180.5" y1="-483.95" x2="180.5" y2="-13.2" gradientTransform="matrix(1, 0, 0, -1, 0, 28.05)" gradientUnits="userSpaceOnUse"><stop offset="0" stop-color="#0067bf"/><stop offset="1" stop-color="#00d4cb"/></linearGradient><linearGradient id="linear-gradient-2" x1="331.5" y1="-442.69" x2="331.5" y2="28.05" xlink:href="#linear-gradient"/><linearGradient id="linear-gradient-3" x1="192.49" y1="842.21" x2="240.6" y2="842.21" gradientTransform="translate(0 -486)" gradientUnits="userSpaceOnUse"><stop offset="0" stop-color="#00b59c"/><stop offset="1" stop-color="#9cffac"/></linearGradient></defs><path class="cls-1" d="M340.37,464.65h0C311.93,476.16,283.54,482,256,482,131.38,482,30,380.62,30,256c0-45.47,14-89.3,40.6-127.55a45,45,0,1,0-23.09-19.32C16.39,152.93,0,203.46,0,256,0,397,115.05,512,256,512c31.42,0,63.59-6.58,95.63-19.54a15,15,0,0,0-11.26-27.81ZM75.69,75.69a15,15,0,1,1,0,21.21h0A15,15,0,0,1,75.69,75.69Z"/><path class="cls-2" d="M512,256C512,115,397,0,256,0c-31.42,0-63.6,6.58-95.63,19.54a15,15,0,1,0,11.26,27.81C200.07,35.84,228.46,30,256,30c124.62,0,226,101.38,226,226,0,45.47-14,89.3-40.6,127.55a45,45,0,1,0,23.09,19.33C495.61,359.08,512,308.54,512,256ZM436.31,436.31a15,15,0,1,1,0-21.21h0A15,15,0,0,1,436.31,436.31Z"/><path class="cls-3" d="M318.69,409.15H193.31a20,20,0,0,1-20-20h0V135.93a20,20,0,0,1,20-20H318.69a20,20,0,0,1,20,19.95h0V389.22a20,20,0,0,1-19.95,20h0Z"/><path class="cls-4" d="M173.35,144.51h165.3V380.6H173.35Z"/><path class="cls-5" d="M318.69,412.48H193.31A23.32,23.32,0,0,1,170,389.22V135.93a23.31,23.31,0,0,1,23.29-23.29h125.4A23.32,23.32,0,0,1,342,135.93V389.22a23.33,23.33,0,0,1-23.29,23.29ZM193.31,119.29a16.65,16.65,0,0,0-16.63,16.64V389.22a16.65,16.65,0,0,0,16.63,16.63H318.69a16.65,16.65,0,0,0,16.63-16.63V135.93a16.65,16.65,0,0,0-16.63-16.64Z"/><path class="cls-6" d="M267.63,134.22H244.37a3.33,3.33,0,1,1-.39-6.65h23.65a3.34,3.34,0,0,1,.37,6.65h-.37Z"/><circle class="cls-6" cx="283.15" cy="130.85" r="3.32"/><path class="cls-7" d="M319.51,167v56.48a6.67,6.67,0,0,1-6.66,6.65H199.15a6.67,6.67,0,0,1-6.66-6.65V167a6.66,6.66,0,0,1,6.66-6.66h113.7a6.66,6.66,0,0,1,6.66,6.66Z"/><path class="cls-8" d="M248.21,279H195.83a3.34,3.34,0,0,1-3.34-3.32V249.22a3.35,3.35,0,0,1,3.34-3.34h52.38a3.34,3.34,0,0,1,3.33,3.34v26.44a3.33,3.33,0,0,1-3.32,3.34Z"/><path class="cls-9" d="M312.34,279H199.66c-3.95,0-7.2-1.49-7.2-3.32V249.22c0-1.8,3.21-3.34,7.2-3.34H312.34c4,0,7.2,1.5,7.2,3.34h0v26.44C319.5,277.51,316.29,279,312.34,279Z"/><path class="cls-10" d="M248.21,319.84H195.83a3.34,3.34,0,0,1-3.34-3.32V290.08a3.34,3.34,0,0,1,3.34-3.33h52.38a3.33,3.33,0,0,1,3.33,3.33h0v26.44A3.33,3.33,0,0,1,248.21,319.84Z"/><path class="cls-11" d="M312.34,319.84H199.66c-3.95,0-7.2-1.49-7.2-3.32V290.08c0-1.8,3.21-3.33,7.2-3.33H312.34c4,0,7.2,1.49,7.2,3.33h0v26.44C319.54,318.32,316.33,319.84,312.34,319.84Z"/><circle class="cls-12" cx="213.9" cy="195.28" r="16.67"/><path class="cls-13" d="M281.08,346.27h28.21a10,10,0,0,1,9.95,9.94h0a10,10,0,0,1-9.95,9.94H281.08a10,10,0,0,1-9.95-9.94h0A10,10,0,0,1,281.08,346.27Z"/><path class="cls-14" d="M202.44,346.27h28.21a10,10,0,0,1,9.95,10h0a10,10,0,0,1-9.95,9.94H202.44a10,10,0,0,1-9.95-9.94h0A10,10,0,0,1,202.44,346.27Z"/></svg>