<?xml version="1.0" encoding="utf-8"?>
<!-- Generator: Adobe Illustrator 25.0.0, SVG Export Plug-In . SVG Version: 6.00 Build 0)  -->
<svg version="1.1" id="Layer_1" xmlns="http://www.w3.org/2000/svg" xmlns:xlink="http://www.w3.org/1999/xlink" x="0px" y="0px"
	 viewBox="0 0 445.5 512" style="enable-background:new 0 0 445.5 512;" xml:space="preserve">
<style type="text/css">
	.st0{fill:url(#SVGID_1_);}
	.st1{fill:url(#SVGID_2_);}
	.st2{fill:url(#SVGID_3_);}
	.st3{fill:url(#SVGID_4_);}
</style>
<linearGradient id="SVGID_1_" gradientUnits="userSpaceOnUse" x1="111.9497" y1="277.695" x2="365.6096" y2="277.695" gradientTransform="matrix(1 0 0 -1 0 448.9)">
	<stop  offset="0" style="stop-color:#0067BF"/>
	<stop  offset="1" style="stop-color:#00D4CB"/>
</linearGradient>
<path class="st0" d="M287.7,99.7H132.9v113.5l-10-10l-10.9,10.9l28.7,28.7l28.7-28.7l-11-10.9l-10,10v-98h123.8v15.5h-61.9v31.5
	h155.3v-31.5h-77.9V99.7z"/>
<linearGradient id="SVGID_2_" gradientUnits="userSpaceOnUse" x1="101.3697" y1="131.705" x2="308.6197" y2="131.705" gradientTransform="matrix(1 0 0 -1 0 448.9)">
	<stop  offset="0" style="stop-color:#0067BF"/>
	<stop  offset="1" style="stop-color:#00D4CB"/>
</linearGradient>
<path class="st1" d="M140.6,348.5h-16l0.5,15.5h162.6v-51.5l10,10l10.9-11l-28.7-28.7l-28.7,28.7l10.9,11l10-10v36H156.1V333h38.7
	v-62.5h-93.4v62.5h39.2V348.5z"/>
<linearGradient id="SVGID_3_" gradientUnits="userSpaceOnUse" x1="210.2597" y1="232.61" x2="365.6096" y2="232.61" gradientTransform="matrix(1 0 0 -1 0 448.9)">
	<stop  offset="0" style="stop-color:#0067BF"/>
	<stop  offset="1" style="stop-color:#00D4CB"/>
</linearGradient>
<path class="st2" d="M210.3,255h155.3v-77.4H210.3V255z M264.5,193.1h77.4v15.5h-77.4V193.1z M264.5,224.1h77.4v15.5h-77.4V224.1z
	 M233.5,193.1h15.5v15.5h-15.5L233.5,193.1z M233.5,224.1h15.5v15.5h-15.5L233.5,224.1z"/>
<linearGradient id="SVGID_4_" gradientUnits="userSpaceOnUse" x1="222.7497" y1="0" x2="222.7497" y2="512">
	<stop  offset="0" style="stop-color:#0067BF"/>
	<stop  offset="1" style="stop-color:#00D4CB"/>
</linearGradient>
<path class="st3" d="M280.9,437.8c94.8-25.6,164.6-112.2,164.6-215.1C445.5,99.7,345.8,0,222.7,0S0,99.7,0,222.8
	c0,101.9,68.4,187.8,161.8,214.3l61.5,74.9L280.9,437.8z M42.2,222.8c0-99.7,80.8-180.5,180.5-180.5s180.5,80.8,180.5,180.5
	s-80.8,180.5-180.5,180.5S42.2,322.5,42.2,222.8z"/>
</svg>
