<?xml version="1.0" encoding="utf-8"?>
<!-- Generator: Adobe Illustrator 25.0.0, SVG Export Plug-In . SVG Version: 6.00 Build 0)  -->
<svg version="1.1" id="Layer_1" xmlns="http://www.w3.org/2000/svg" xmlns:xlink="http://www.w3.org/1999/xlink" x="0px" y="0px"
	 viewBox="0 0 445.5 512" style="enable-background:new 0 0 445.5 512;" xml:space="preserve">
<style type="text/css">
	.st0{fill:url(#SVGID_1_);}
	.st1{fill:url(#SVGID_2_);}
	.st2{fill:url(#SVGID_3_);}
	.st3{fill:url(#SVGID_4_);}
	.st4{fill:url(#SVGID_5_);}
	.st5{fill:url(#SVGID_6_);}
	.st6{fill:url(#SVGID_7_);}
	.st7{fill:url(#SVGID_8_);}
	.st8{fill:url(#SVGID_9_);}
	.st9{fill:url(#SVGID_10_);}
	.st10{fill:url(#SVGID_11_);}
	.st11{fill:url(#SVGID_12_);}
	.st12{fill:url(#SVGID_13_);}
	.st13{fill:url(#SVGID_14_);}
</style>
<g>
	
		<linearGradient id="SVGID_1_" gradientUnits="userSpaceOnUse" x1="222.7692" y1="325.1278" x2="222.7692" y2="317.3449" gradientTransform="matrix(1 0 0 -1 0 417.18)">
		<stop  offset="0" style="stop-color:#0067BF"/>
		<stop  offset="1" style="stop-color:#00D4CB"/>
	</linearGradient>
	<path class="st0" d="M262.9,92.1h-80.3c-2.1-0.2-4,1.4-4.2,3.5c-0.2,2,1.2,3.8,3.1,4.2c0.4,0,0.7,0,1.1,0h80.3
		c2.1,0.2,4-1.4,4.2-3.5c0.2-2-1.2-3.8-3.1-4.2C263.7,92.1,263.3,92.1,262.9,92.1z"/>
	
		<linearGradient id="SVGID_2_" gradientUnits="userSpaceOnUse" x1="222.7692" y1="308.9163" x2="222.7692" y2="301.2441" gradientTransform="matrix(1 0 0 -1 0 417.18)">
		<stop  offset="0" style="stop-color:#0067BF"/>
		<stop  offset="1" style="stop-color:#00D4CB"/>
	</linearGradient>
	<path class="st1" d="M262.9,108.3h-80.3c-2.1,0-3.8,1.7-3.8,3.8c0,2.1,1.7,3.8,3.8,3.8h80.3c2.1,0,3.8-1.7,3.8-3.8
		C266.8,110,265.1,108.3,262.9,108.3z"/>
	
		<linearGradient id="SVGID_3_" gradientUnits="userSpaceOnUse" x1="222.7692" y1="292.8028" x2="222.7692" y2="285.1212" gradientTransform="matrix(1 0 0 -1 0 417.18)">
		<stop  offset="0" style="stop-color:#0067BF"/>
		<stop  offset="1" style="stop-color:#00D4CB"/>
	</linearGradient>
	<path class="st2" d="M262.9,124.4h-80.3c-2.1,0-3.8,1.7-3.8,3.8c0,2.1,1.7,3.8,3.8,3.8h80.3c2.1,0,3.8-1.7,3.8-3.8
		C266.8,126.1,265.1,124.4,262.9,124.4z"/>
	
		<linearGradient id="SVGID_4_" gradientUnits="userSpaceOnUse" x1="126.9733" y1="167.0297" x2="126.9733" y2="159.2757" gradientTransform="matrix(1 0 0 -1 0 417.18)">
		<stop  offset="0" style="stop-color:#0067BF"/>
		<stop  offset="1" style="stop-color:#00D4CB"/>
	</linearGradient>
	<path class="st3" d="M116.7,257.9h21.2c2.1,0,3.8-1.7,3.8-3.8c0-2.1-1.7-3.8-3.8-3.8h-21.2c-2.1-0.3-4.1,1.2-4.4,3.3
		c-0.3,2.1,1.2,4.1,3.3,4.4C115.9,257.9,116.3,257.9,116.7,257.9z"/>
	
		<linearGradient id="SVGID_5_" gradientUnits="userSpaceOnUse" x1="127.2634" y1="139.316" x2="127.2634" y2="131.6358" gradientTransform="matrix(1 0 0 -1 0 417.18)">
		<stop  offset="0" style="stop-color:#0067BF"/>
		<stop  offset="1" style="stop-color:#00D4CB"/>
	</linearGradient>
	<path class="st4" d="M116.7,285.5h21.2c2.1,0.1,3.9-1.5,4-3.7c0.1-2.1-1.5-3.9-3.7-4h-21.6c-2.1-0.1-3.9,1.5-4,3.7
		c-0.1,2.1,1.5,3.9,3.7,4H116.7z"/>
	
		<linearGradient id="SVGID_6_" gradientUnits="userSpaceOnUse" x1="126.9733" y1="111.6724" x2="126.9733" y2="103.9184" gradientTransform="matrix(1 0 0 -1 0 417.18)">
		<stop  offset="0" style="stop-color:#0067BF"/>
		<stop  offset="1" style="stop-color:#00D4CB"/>
	</linearGradient>
	<path class="st5" d="M116.7,313.2h21.2c2.1,0,3.8-1.7,3.8-3.8c0-2.1-1.7-3.8-3.8-3.8h-21.2c-2.1-0.3-4.1,1.2-4.4,3.3
		s1.2,4.1,3.3,4.4l0,0C115.9,313.3,116.3,313.3,116.7,313.2z"/>
	
		<linearGradient id="SVGID_7_" gradientUnits="userSpaceOnUse" x1="222.7497" y1="343.5666" x2="222.7497" y2="87.3729" gradientTransform="matrix(1 0 0 -1 0 417.18)">
		<stop  offset="0" style="stop-color:#0067BF"/>
		<stop  offset="1" style="stop-color:#00D4CB"/>
	</linearGradient>
	<path class="st6" d="M347.8,254.9c-2.1,0-3.8,1.7-3.9,3.8V315c0,3.9-3.1,7-7,7c0,0,0,0,0,0h-37.3c-3.9,0-7-3.2-7-7l0,0v-68.5
		c0-3.9,3.2-7,7-7H337c3.1,0,5.9,2.1,6.8,5.1c0.9,2,3.2,2.8,5.1,2c1.6-0.7,2.5-2.4,2.3-4.1c-1.9-6.2-7.6-10.5-14.1-10.5h-14.8v-38.2
		c0-4.9-4-8.9-8.9-8.9h-86.7v-34.3H271c8.1,0,14.7-6.6,14.7-14.7c0,0,0,0,0,0V88.4c0-8.1-6.6-14.7-14.7-14.7h-67.7
		c-2.1-0.4-4.1,1-4.5,3.1c-0.4,2.1,1,4.1,3.1,4.5c0.1,0,0.2,0,0.4,0.1c0.4,0,0.7,0,1.1,0H271c3.9,0,7,3.1,7,7v47.3c0,3.9-3.2,7-7,7
		h-96.5c-3.9,0-7-3.2-7-7V88.4c0-3.9,3.2-7,7-7H188c2.1,0.2,4-1.3,4.3-3.5c0.2-2-1.2-3.8-3.2-4.2c-0.4,0-0.7,0-1.1,0h-13.4
		c-8.1,0-14.7,6.6-14.7,14.7v47.3c0,8.1,6.6,14.7,14.7,14.7c0,0,0,0,0,0h44.4v34.3h-86.7c-4.9,0-8.8,4-8.8,8.9v38.2h-14.9
		c-8.1,0-14.7,6.6-14.7,14.7v56.3c-0.3,2.1,1.2,4.1,3.3,4.4c2.1,0.3,4.1-1.2,4.4-3.3c0.1-0.4,0.1-0.7,0-1.1v-56.3c0-3.9,3.2-7,7-7
		h37.4c3.9,0,7,3.1,7,7c0,0,0,0,0,0V315c0,3.9-3.1,7-7,7c0,0,0,0,0,0h-37.3c-3.1,0-5.9-2.1-6.8-5.1c-0.9-2-3.2-2.8-5.1-2
		c-1.6,0.7-2.5,2.4-2.3,4.1c1.9,6.3,7.6,10.6,14.1,10.6H146c8.1,0,14.7-6.6,14.7-14.7v-68.5c0-8.1-6.6-14.7-14.7-14.7h-14.9v-38.1
		c0-0.7,0.5-1.2,1.2-1.2c0,0,0,0,0,0h86.6v39.3h-14.8c-8.1,0-14.7,6.6-14.7,14.7c0,0,0,0,0,0v68.5c0,8.1,6.6,14.7,14.7,14.7
		c0,0,0,0,0,0h37.4c8.1,0,14.7-6.6,14.7-14.7v-68.6c0-8.1-6.6-14.7-14.7-14.7h-14.8v-39.3h86.6c0.7,0,1.2,0.5,1.2,1.2v38.2h-14.8
		c-8.1,0-14.7,6.6-14.7,14.7v68.5c0,8.1,6.6,14.7,14.7,14.7H337c8.1,0,14.7-6.6,14.7-14.7c0,0,0,0,0,0v-56.3
		C351.7,256.6,349.9,254.9,347.8,254.9z M241.5,239.4c3.9,0,7,3.1,7,7V315c0,3.9-3.2,7-7,7h-37.4c-3.9,0-7-3.2-7-7l0,0v-68.5
		c0-3.9,3.2-7,7-7c0,0,0,0,0,0H241.5z"/>
	
		<linearGradient id="SVGID_8_" gradientUnits="userSpaceOnUse" x1="318.2726" y1="166.9906" x2="318.2726" y2="159.3184" gradientTransform="matrix(1 0 0 -1 0 417.18)">
		<stop  offset="0" style="stop-color:#0067BF"/>
		<stop  offset="1" style="stop-color:#00D4CB"/>
	</linearGradient>
	<path class="st7" d="M328.9,250.2h-21.2c-2.1,0-3.8,1.7-3.8,3.8c0,2.1,1.7,3.8,3.8,3.8h21.2c2.1,0,3.8-1.7,3.8-3.8
		C332.7,251.9,331,250.2,328.9,250.2z"/>
	
		<linearGradient id="SVGID_9_" gradientUnits="userSpaceOnUse" x1="318.2751" y1="139.3158" x2="318.2751" y2="131.6357" gradientTransform="matrix(1 0 0 -1 0 417.18)">
		<stop  offset="0" style="stop-color:#0067BF"/>
		<stop  offset="1" style="stop-color:#00D4CB"/>
	</linearGradient>
	<path class="st8" d="M328.9,277.9h-21.2c-2.1-0.1-3.9,1.5-4,3.7c-0.1,2.1,1.5,3.9,3.7,4h21.6c2.1,0.1,3.9-1.5,4-3.7
		c0.1-2.1-1.5-3.9-3.7-4H328.9z"/>
	
		<linearGradient id="SVGID_10_" gradientUnits="userSpaceOnUse" x1="318.0212" y1="111.6332" x2="318.0212" y2="103.9611" gradientTransform="matrix(1 0 0 -1 0 417.18)">
		<stop  offset="0" style="stop-color:#0067BF"/>
		<stop  offset="1" style="stop-color:#00D4CB"/>
	</linearGradient>
	<path class="st9" d="M328.9,305.5h-21.2c-2.1,0-3.8,1.7-3.8,3.8c0,2.1,1.7,3.8,3.8,3.8h21.2c2.1-0.3,3.6-2.3,3.3-4.4
		C331.9,307.1,330.6,305.8,328.9,305.5z"/>
	
		<linearGradient id="SVGID_11_" gradientUnits="userSpaceOnUse" x1="223.0206" y1="166.9906" x2="223.0206" y2="159.3184" gradientTransform="matrix(1 0 0 -1 0 417.18)">
		<stop  offset="0" style="stop-color:#0067BF"/>
		<stop  offset="1" style="stop-color:#00D4CB"/>
	</linearGradient>
	<path class="st10" d="M212.2,257.9h21.2c2.1,0,3.8-1.7,3.8-3.8c0-2.1-1.7-3.8-3.8-3.8h-21.2c-2.1,0.3-3.6,2.3-3.3,4.4
		C209.1,256.3,210.4,257.6,212.2,257.9z"/>
	
		<linearGradient id="SVGID_12_" gradientUnits="userSpaceOnUse" x1="222.7692" y1="139.316" x2="222.7692" y2="131.6356" gradientTransform="matrix(1 0 0 -1 0 417.18)">
		<stop  offset="0" style="stop-color:#0067BF"/>
		<stop  offset="1" style="stop-color:#00D4CB"/>
	</linearGradient>
	<path class="st11" d="M212.2,285.5h21.2c2.1,0.1,3.9-1.5,4-3.7c0.1-2.1-1.5-3.9-3.7-4l0,0h-21.6c-2.1-0.1-3.9,1.5-4,3.7
		c-0.1,2.1,1.5,3.9,3.7,4H212.2z"/>
	
		<linearGradient id="SVGID_13_" gradientUnits="userSpaceOnUse" x1="223.0206" y1="111.6332" x2="223.0206" y2="103.9611" gradientTransform="matrix(1 0 0 -1 0 417.18)">
		<stop  offset="0" style="stop-color:#0067BF"/>
		<stop  offset="1" style="stop-color:#00D4CB"/>
	</linearGradient>
	<path class="st12" d="M212.2,313.2h21.2c2.1,0,3.8-1.7,3.8-3.8c0-2.1-1.7-3.8-3.8-3.8h-21.2c-2.1,0.3-3.6,2.3-3.3,4.4
		C209.1,311.6,210.4,313,212.2,313.2z"/>
</g>
<linearGradient id="SVGID_14_" gradientUnits="userSpaceOnUse" x1="222.7497" y1="0" x2="222.7497" y2="512">
	<stop  offset="0" style="stop-color:#0067BF"/>
	<stop  offset="1" style="stop-color:#00D4CB"/>
</linearGradient>
<path class="st13" d="M280.9,437.8c94.8-25.6,164.6-112.2,164.6-215.1C445.5,99.7,345.8,0,222.7,0S0,99.7,0,222.8
	c0,101.9,68.4,187.8,161.8,214.3l61.5,74.9L280.9,437.8z M42.2,222.8c0-99.7,80.8-180.5,180.5-180.5s180.5,80.8,180.5,180.5
	s-80.8,180.5-180.5,180.5S42.2,322.5,42.2,222.8z"/>
</svg>
