<?xml version="1.0" encoding="utf-8"?>
<!-- Generator: Adobe Illustrator 25.0.0, SVG Export Plug-In . SVG Version: 6.00 Build 0)  -->
<svg version="1.1" id="Layer_1" xmlns="http://www.w3.org/2000/svg" xmlns:xlink="http://www.w3.org/1999/xlink" x="0px" y="0px"
	 viewBox="0 0 445.5 512" style="enable-background:new 0 0 445.5 512;" xml:space="preserve">
<style type="text/css">
	.st0{fill:url(#SVGID_1_);}
	.st1{fill:url(#SVGID_2_);}
	.st2{fill:url(#SVGID_3_);}
	.st3{fill:url(#SVGID_4_);}
	.st4{fill:url(#SVGID_5_);}
	.st5{fill:url(#SVGID_6_);}
	.st6{fill:url(#SVGID_7_);}
	.st7{fill:url(#SVGID_8_);}
	.st8{fill:url(#SVGID_9_);}
	.st9{fill:url(#SVGID_10_);}
	.st10{fill:url(#SVGID_11_);}
	.st11{fill:url(#SVGID_12_);}
	.st12{fill:url(#SVGID_13_);}
	.st13{fill:url(#SVGID_14_);}
	.st14{fill:url(#SVGID_15_);}
	.st15{fill:url(#SVGID_16_);}
	.st16{fill:url(#SVGID_17_);}
</style>
<g>
	
		<linearGradient id="SVGID_1_" gradientUnits="userSpaceOnUse" x1="100.8608" y1="311.7857" x2="342.5485" y2="311.7857" gradientTransform="matrix(1 0 0 -1 0 447.6)">
		<stop  offset="0" style="stop-color:#0067BF"/>
		<stop  offset="1" style="stop-color:#00D4CB"/>
	</linearGradient>
	<path class="st0" d="M337.9,106.8H105.6c-2.6,0-4.7,2.1-4.7,4.7c0,0,0,0,0,0v48.6c0,2.6,2.1,4.7,4.7,4.7h232.3
		c2.6,0,4.7-2.1,4.7-4.7v-48.7C342.5,108.9,340.5,106.8,337.9,106.8L337.9,106.8z M333.2,155.4H110.3v-39.1h222.8L333.2,155.4z"/>
	
		<linearGradient id="SVGID_2_" gradientUnits="userSpaceOnUse" x1="290.0457" y1="311.7851" x2="323.8079" y2="311.7851" gradientTransform="matrix(1 0 0 -1 0 447.6)">
		<stop  offset="0" style="stop-color:#0067BF"/>
		<stop  offset="1" style="stop-color:#00D4CB"/>
	</linearGradient>
	<path class="st1" d="M322.5,144.6l-3.8-3.8c3.7-7.5,0.7-16.5-6.7-20.3c-7.5-3.7-16.5-0.7-20.3,6.7c-3.7,7.5-0.7,16.5,6.7,20.3
		c4.3,2.1,9.3,2.1,13.6,0l3.8,3.8c1.9,1.9,4.9,1.9,6.7,0C324.3,149.5,324.3,146.5,322.5,144.6L322.5,144.6L322.5,144.6z
		 M309.1,137.9c-2.2,2.2-5.8,2.2-8,0c-2.2-2.2-2.2-5.8,0-8c2.2-2.2,5.8-2.2,8,0c1.1,1.1,1.7,2.5,1.7,4
		C310.8,135.4,310.2,136.8,309.1,137.9z"/>
	
		<linearGradient id="SVGID_3_" gradientUnits="userSpaceOnUse" x1="260.687" y1="303.2672" x2="270.0963" y2="303.2672" gradientTransform="matrix(1 0 0 -1 0 447.6)">
		<stop  offset="0" style="stop-color:#0067BF"/>
		<stop  offset="1" style="stop-color:#00D4CB"/>
	</linearGradient>
	<path class="st2" d="M270,143.4c-0.1-0.3-0.2-0.6-0.3-0.9c-0.1-0.3-0.3-0.5-0.4-0.8c-0.3-0.5-0.8-1-1.3-1.3
		c-0.3-0.2-0.5-0.3-0.8-0.4c-0.3-0.1-0.6-0.2-0.9-0.3c-0.6-0.1-1.2-0.1-1.8,0c-0.6,0.1-1.2,0.4-1.7,0.7c-0.5,0.3-1,0.8-1.3,1.3
		c-0.2,0.2-0.3,0.5-0.4,0.8c-0.1,0.3-0.2,0.6-0.3,0.9c-0.1,0.6-0.1,1.2,0,1.9c0.1,0.3,0.1,0.6,0.3,0.9c0.1,0.3,0.3,0.5,0.4,0.8
		c0.3,0.5,0.8,1,1.3,1.3c0.2,0.2,0.5,0.3,0.8,0.4c0.3,0.1,0.6,0.2,0.9,0.3c0.3,0.1,0.6,0.1,1,0.1c0.3,0,0.6,0,1-0.1
		c0.3-0.1,0.6-0.2,0.9-0.3c0.3-0.1,0.6-0.3,0.8-0.4C269.6,147.1,270.4,145.3,270,143.4L270,143.4z"/>
	
		<linearGradient id="SVGID_4_" gradientUnits="userSpaceOnUse" x1="144.6558" y1="303.2732" x2="252.225" y2="303.2732" gradientTransform="matrix(1 0 0 -1 0 447.6)">
		<stop  offset="0" style="stop-color:#0067BF"/>
		<stop  offset="1" style="stop-color:#00D4CB"/>
	</linearGradient>
	<path class="st3" d="M247.5,139.6h-98.1c-2.6,0.1-4.6,2.3-4.5,4.9c0.1,2.4,2.1,4.4,4.5,4.5h98.1c2.6-0.1,4.6-2.3,4.5-4.9
		C251.9,141.7,250,139.7,247.5,139.6z"/>
	
		<linearGradient id="SVGID_5_" gradientUnits="userSpaceOnUse" x1="101.4363" y1="224.824" x2="254.2107" y2="224.824" gradientTransform="matrix(1 0 0 -1 0 447.6)">
		<stop  offset="0" style="stop-color:#0067BF"/>
		<stop  offset="1" style="stop-color:#00D4CB"/>
	</linearGradient>
	<path class="st4" d="M249.5,171.5H106.1c-2.6,0-4.7,2.1-4.7,4.7c0,0,0,0,0,0v93.1c0,2.6,2.1,4.7,4.7,4.7c0,0,0,0,0,0h143.4
		c2.6,0,4.7-2.1,4.7-4.7c0,0,0,0,0,0v-93.1C254.2,173.7,252.2,171.5,249.5,171.5C249.6,171.5,249.6,171.5,249.5,171.5L249.5,171.5z
		 M158.4,264.6h-40.1l27-31.2l19.5,22.7L158.4,264.6z M170.2,264.6l8.8-11.7h22.9c2.6,0.1,4.8-1.9,4.9-4.5c0.1-2.6-1.9-4.8-4.5-4.9
		c-0.1,0-0.3,0-0.4,0H186l3.3-4.4H219l19.2,25.6H170.2z M196.4,229.5l7.7-10.3l7.7,10.3L196.4,229.5z M244.7,257.6l-36.8-49.1
		c-1.6-2.1-4.5-2.5-6.6-1c-0.4,0.3-0.7,0.6-1,1l-29.8,39.7l-21.7-25.2c-1.7-2-4.7-2.2-6.7-0.5c-0.2,0.2-0.3,0.3-0.5,0.5l-30.8,35.7
		V181h133.9V257.6z"/>
	
		<linearGradient id="SVGID_6_" gradientUnits="userSpaceOnUse" x1="149.1255" y1="244.549" x2="182.5232" y2="244.549" gradientTransform="matrix(1 0 0 -1 0 447.6)">
		<stop  offset="0" style="stop-color:#0067BF"/>
		<stop  offset="1" style="stop-color:#00D4CB"/>
	</linearGradient>
	<path class="st5" d="M165.8,186.4c-9.2,0-16.7,7.5-16.7,16.7s7.5,16.7,16.7,16.7c9.2,0,16.7-7.5,16.7-16.7c0,0,0,0,0,0l0,0
		C182.5,193.8,175.1,186.4,165.8,186.4z M165.8,210.3c-4,0-7.3-3.2-7.3-7.3c0-4,3.2-7.3,7.3-7.3c4,0,7.3,3.2,7.3,7.3c0,0,0,0,0,0
		l0,0C173.1,207.1,169.8,210.3,165.8,210.3z"/>
	
		<linearGradient id="SVGID_7_" gradientUnits="userSpaceOnUse" x1="260.6176" y1="224.824" x2="342.5486" y2="224.824" gradientTransform="matrix(1 0 0 -1 0 447.6)">
		<stop  offset="0" style="stop-color:#0067BF"/>
		<stop  offset="1" style="stop-color:#00D4CB"/>
	</linearGradient>
	<path class="st6" d="M337.9,171.5h-72.6c-2.6,0-4.7,2.1-4.7,4.7v93.1c0,2.6,2.1,4.7,4.7,4.7c0,0,0,0,0,0h72.6
		c2.6,0,4.7-2.1,4.7-4.7v-93.1C342.6,173.7,340.5,171.5,337.9,171.5L337.9,171.5z M333.2,264.6H270V181h63.1L333.2,264.6z"/>
	
		<linearGradient id="SVGID_8_" gradientUnits="userSpaceOnUse" x1="276.2901" y1="254.1357" x2="326.8663" y2="254.1357" gradientTransform="matrix(1 0 0 -1 0 447.6)">
		<stop  offset="0" style="stop-color:#0067BF"/>
		<stop  offset="1" style="stop-color:#00D4CB"/>
	</linearGradient>
	<path class="st7" d="M322.1,188.7H281c-2.6,0.1-4.6,2.3-4.5,4.9c0.1,2.4,2.1,4.4,4.5,4.5h41.1c2.6-0.1,4.6-2.3,4.5-4.9
		C326.5,190.8,324.6,188.9,322.1,188.7L322.1,188.7z"/>
	
		<linearGradient id="SVGID_9_" gradientUnits="userSpaceOnUse" x1="276.2942" y1="235.1876" x2="326.8704" y2="235.1876" gradientTransform="matrix(1 0 0 -1 0 447.6)">
		<stop  offset="0" style="stop-color:#0067BF"/>
		<stop  offset="1" style="stop-color:#00D4CB"/>
	</linearGradient>
	<path class="st8" d="M322.1,207.7H281c-2.6,0-4.7,2.1-4.7,4.7c0,2.6,2.1,4.7,4.7,4.7h41.1c2.6,0,4.7-2.1,4.7-4.7
		C326.9,209.8,324.8,207.7,322.1,207.7C322.2,207.7,322.2,207.7,322.1,207.7L322.1,207.7z"/>
	
		<linearGradient id="SVGID_10_" gradientUnits="userSpaceOnUse" x1="276.2901" y1="216.2395" x2="326.8663" y2="216.2395" gradientTransform="matrix(1 0 0 -1 0 447.6)">
		<stop  offset="0" style="stop-color:#0067BF"/>
		<stop  offset="1" style="stop-color:#00D4CB"/>
	</linearGradient>
	<path class="st9" d="M322.1,226.6H281c-2.6,0.1-4.6,2.3-4.5,4.9c0.1,2.4,2.1,4.4,4.5,4.5h41.1c2.6-0.1,4.6-2.3,4.5-4.9
		C326.5,228.7,324.6,226.7,322.1,226.6L322.1,226.6z"/>
	
		<linearGradient id="SVGID_11_" gradientUnits="userSpaceOnUse" x1="276.3189" y1="197.285" x2="285.7186" y2="197.285" gradientTransform="matrix(1 0 0 -1 0 447.6)">
		<stop  offset="0" style="stop-color:#0067BF"/>
		<stop  offset="1" style="stop-color:#00D4CB"/>
	</linearGradient>
	<path class="st10" d="M285.6,249.4c-0.1-0.6-0.4-1.2-0.7-1.7c-1.1-1.6-3-2.4-4.9-2c-0.3,0.1-0.6,0.2-0.9,0.3
		c-0.3,0.1-0.5,0.3-0.8,0.4c-0.5,0.3-1,0.8-1.3,1.3c-0.3,0.5-0.6,1.1-0.7,1.7c-0.1,0.3-0.1,0.6-0.1,1c0,0.6,0.1,1.2,0.4,1.8
		c0.1,0.3,0.3,0.5,0.4,0.8c0.3,0.5,0.8,1,1.3,1.3c0.3,0.2,0.5,0.3,0.8,0.4c0.3,0.1,0.6,0.2,0.9,0.3c0.3,0.1,0.6,0.1,1,0.1
		c1.6,0,3-0.8,3.9-2.1c0.2-0.2,0.3-0.5,0.4-0.8c0.1-0.3,0.2-0.6,0.3-0.9c0.1-0.3,0.1-0.6,0.1-1C285.7,250,285.7,249.7,285.6,249.4z"
		/>
	
		<linearGradient id="SVGID_12_" gradientUnits="userSpaceOnUse" x1="294.1935" y1="197.2915" x2="326.8622" y2="197.2915" gradientTransform="matrix(1 0 0 -1 0 447.6)">
		<stop  offset="0" style="stop-color:#0067BF"/>
		<stop  offset="1" style="stop-color:#00D4CB"/>
	</linearGradient>
	<path class="st11" d="M322.1,245.6h-23.2c-2.6,0-4.7,2.1-4.7,4.7c0,2.6,2.1,4.7,4.7,4.7c0,0,0,0,0,0h23.2c2.6,0,4.7-2.1,4.7-4.7
		C326.9,247.7,324.8,245.6,322.1,245.6z"/>
	
		<linearGradient id="SVGID_13_" gradientUnits="userSpaceOnUse" x1="101.4363" y1="137.8142" x2="183.4058" y2="137.8142" gradientTransform="matrix(1 0 0 -1 0 447.6)">
		<stop  offset="0" style="stop-color:#0067BF"/>
		<stop  offset="1" style="stop-color:#00D4CB"/>
	</linearGradient>
	<path class="st12" d="M178.7,280.8h-72.6c-2.6,0-4.7,2.1-4.7,4.7c0,0,0,0,0,0v48.7c0,2.6,2.1,4.7,4.7,4.7c0,0,0,0,0,0h72.6
		c2.6,0,4.7-2,4.7-4.6c0,0,0,0,0,0v-48.7C183.4,282.9,181.3,280.8,178.7,280.8C178.8,280.8,178.8,280.8,178.7,280.8L178.7,280.8z
		 M174,329.4h-63.1v-39.2H174V329.4z"/>
	
		<linearGradient id="SVGID_14_" gradientUnits="userSpaceOnUse" x1="190.4554" y1="137.8143" x2="342.5486" y2="137.8143" gradientTransform="matrix(1 0 0 -1 0 447.6)">
		<stop  offset="0" style="stop-color:#0067BF"/>
		<stop  offset="1" style="stop-color:#00D4CB"/>
	</linearGradient>
	<path class="st13" d="M337.9,280.8H195.1c-2.6,0-4.7,2.1-4.7,4.7l0,0v48.7c0,2.6,2.1,4.7,4.7,4.7c0,0,0,0,0,0h142.7
		c2.6,0,4.7-2.1,4.7-4.7l0,0v-48.6C342.6,282.9,340.5,280.8,337.9,280.8C337.9,280.8,337.9,280.8,337.9,280.8L337.9,280.8z
		 M333.2,329.4H199.9v-39.2h133.3V329.4L333.2,329.4z"/>
	
		<linearGradient id="SVGID_15_" gradientUnits="userSpaceOnUse" x1="212.0598" y1="137.7796" x2="221.501" y2="137.7796" gradientTransform="matrix(1 0 0 -1 0 447.6)">
		<stop  offset="0" style="stop-color:#0067BF"/>
		<stop  offset="1" style="stop-color:#00D4CB"/>
	</linearGradient>
	<path class="st14" d="M221.4,308.9c-0.1-0.3-0.2-0.6-0.3-0.9c-0.1-0.3-0.3-0.5-0.4-0.8c-0.2-0.3-0.4-0.5-0.6-0.7
		c-0.2-0.2-0.5-0.4-0.7-0.6c-0.3-0.2-0.5-0.3-0.8-0.4c-0.3-0.1-0.6-0.2-0.9-0.3c-0.6-0.1-1.2-0.1-1.9,0c-0.3,0.1-0.6,0.2-0.9,0.3
		c-0.3,0.1-0.5,0.3-0.8,0.4c-0.3,0.2-0.5,0.4-0.7,0.6c-0.2,0.2-0.4,0.5-0.6,0.7c-0.3,0.5-0.6,1.1-0.7,1.7c-0.2,0.9-0.1,1.9,0.3,2.7
		c0.1,0.3,0.3,0.5,0.4,0.8c0.2,0.3,0.4,0.5,0.6,0.7c0.9,0.9,2.1,1.4,3.3,1.4c0.3,0,0.6,0,0.9-0.1c0.3-0.1,0.6-0.2,0.9-0.3
		c0.3-0.1,0.6-0.3,0.8-0.4c0.3-0.2,0.5-0.4,0.7-0.6c0.2-0.2,0.4-0.5,0.6-0.7c0.2-0.2,0.3-0.5,0.4-0.8c0.1-0.3,0.2-0.6,0.3-0.9
		C221.5,310.2,221.5,309.5,221.4,308.9L221.4,308.9z"/>
	
		<linearGradient id="SVGID_16_" gradientUnits="userSpaceOnUse" x1="229.9206" y1="137.7951" x2="318.66" y2="137.7951" gradientTransform="matrix(1 0 0 -1 0 447.6)">
		<stop  offset="0" style="stop-color:#0067BF"/>
		<stop  offset="1" style="stop-color:#00D4CB"/>
	</linearGradient>
	<path class="st15" d="M313.9,305.1h-79.3c-2.6,0-4.7,2.1-4.7,4.7c0,2.6,2.1,4.7,4.7,4.7c0,0,0,0,0,0h79.3c2.6,0,4.7-2.1,4.7-4.7
		C318.7,307.2,316.6,305.1,313.9,305.1C313.9,305.1,313.9,305.1,313.9,305.1L313.9,305.1z"/>
</g>
<linearGradient id="SVGID_17_" gradientUnits="userSpaceOnUse" x1="222.7497" y1="0" x2="222.7497" y2="512">
	<stop  offset="0" style="stop-color:#0067BF"/>
	<stop  offset="1" style="stop-color:#00D4CB"/>
</linearGradient>
<path class="st16" d="M280.9,437.8c94.8-25.6,164.6-112.2,164.6-215.1C445.5,99.7,345.8,0,222.7,0S0,99.7,0,222.8
	c0,101.9,68.4,187.8,161.8,214.3l61.5,74.9L280.9,437.8z M42.2,222.8c0-99.7,80.8-180.5,180.5-180.5s180.5,80.8,180.5,180.5
	s-80.8,180.5-180.5,180.5S42.2,322.5,42.2,222.8z"/>
</svg>
