<?xml version="1.0" encoding="utf-8"?>
<!-- Generator: Adobe Illustrator 25.0.0, SVG Export Plug-In . SVG Version: 6.00 Build 0)  -->
<svg version="1.1" id="Layer_1" xmlns="http://www.w3.org/2000/svg" xmlns:xlink="http://www.w3.org/1999/xlink" x="0px" y="0px"
	 viewBox="0 0 445.5 512" style="enable-background:new 0 0 445.5 512;" xml:space="preserve">
<style type="text/css">
	._x0033_D_x0020_Effect_x0020_17{fill:#00AEEF;stroke:#FFFFFF;}
	.st0{fill:none;stroke:url(#SVGID_1_);stroke-width:6;stroke-miterlimit:10;}
	.st1{enable-background:new    ;}
	.st2{clip-path:url(#SVGID_3_);enable-background:new    ;}
	.st3{fill:#0092C9;}
	.st4{clip-path:url(#SVGID_5_);enable-background:new    ;}
	.st5{fill:#0096CE;}
	.st6{fill:#0099D2;}
	.st7{fill:#009DD7;}
	.st8{fill:#00A0DC;}
	.st9{clip-path:url(#SVGID_7_);enable-background:new    ;}
	.st10{fill:#00739E;}
	.st11{clip-path:url(#SVGID_9_);enable-background:new    ;}
	.st12{fill:#006F99;}
	.st13{fill:#006C94;}
	.st14{fill:#00688F;}
	.st15{fill:#00658B;}
	.st16{fill:#006186;}
	.st17{fill:#005E81;}
	.st18{fill:#005A7C;}
	.st19{fill:#00ABEB;}
	.st20{clip-path:url(#SVGID_11_);enable-background:new    ;}
	.st21{fill:#0076A3;}
	.st22{fill:#007AA7;}
	.st23{fill:#007DAC;}
	.st24{fill:#0081B1;}
	.st25{fill:#0084B6;}
	.st26{fill:#0088BA;}
	.st27{fill:#008BBF;}
	.st28{fill:#008FC4;}
	.st29{clip-path:url(#SVGID_13_);enable-background:new    ;}
	.st30{clip-path:url(#SVGID_15_);enable-background:new    ;}
	.st31{clip-path:url(#SVGID_17_);enable-background:new    ;}
	.st32{fill:none;stroke:#FFFFFF;}
</style>
<radialGradient id="SVGID_1_" cx="222.75" cy="256" r="221.5396" gradientUnits="userSpaceOnUse">
	<stop  offset="6.819570e-07" style="stop-color:#15FFE8"/>
	<stop  offset="1" style="stop-color:#55E0FF"/>
</radialGradient>
<circle class="st0" cx="222.8" cy="256" r="218.5"/>
<g>
	<g>
		
			<image style="overflow:visible;opacity:0.31;" width="373" height="165" xlink:href="46FC96.png"  transform="matrix(1 0 0 1 41.52 158.52)">
		</image>
		<g>
			<g class="st1">
				<g class="st1">
					<defs>
						<path id="SVGID_2_" class="st1" d="M72,207.9l5.1,0.3c13,21.6,26.1,43.1,39.1,64.7l-5.1-0.3C98,251.1,85,229.5,72,207.9z"/>
					</defs>
					<clipPath id="SVGID_3_">
						<use xlink:href="#SVGID_2_"  style="overflow:visible;"/>
					</clipPath>
					<g class="st2">
						<path class="st3" d="M72,207.9l5.1,0.3c13,21.6,26.1,43.1,39.1,64.7l-5.1-0.3C98,251.1,85,229.5,72,207.9"/>
					</g>
				</g>
				<g class="st1">
					<defs>
						<path id="SVGID_4_" class="st1" d="M149.3,295.8l-5.1-0.3c-11.6-0.6-23-7.1-33-22.9l5.1,0.3
							C126.3,288.7,137.7,295.2,149.3,295.8z"/>
					</defs>
					<clipPath id="SVGID_5_">
						<use xlink:href="#SVGID_4_"  style="overflow:visible;"/>
					</clipPath>
					<g class="st4">
						<path class="st3" d="M111.1,272.6l5.1,0.3c0.5,0.8,1,1.6,1.5,2.3l-5.1-0.3C112.1,274.2,111.6,273.4,111.1,272.6"/>
						<path class="st5" d="M112.6,274.9l5.1,0.3c0.9,1.4,1.9,2.7,2.8,3.9l-5.1-0.3C114.5,277.6,113.5,276.3,112.6,274.9"/>
						<path class="st6" d="M115.4,278.8l5.1,0.3c1,1.3,2.1,2.5,3.1,3.7l-5.1-0.3C117.5,281.3,116.5,280.1,115.4,278.8"/>
						<path class="st7" d="M118.5,282.5l5.1,0.3c1.3,1.4,2.6,2.7,3.9,3.9l-5.1-0.3C121.2,285.2,119.8,283.9,118.5,282.5"/>
						<path class="st8" d="M122.5,286.3l5.1,0.3c3.8,3.3,7.7,5.7,11.7,7.2l-5.1-0.3C130.2,292,126.3,289.7,122.5,286.3"/>
						<path class="st7" d="M134.2,293.5l5.1,0.3c1.1,0.4,2.3,0.8,3.5,1.1l-5.1-0.3C136.5,294.3,135.4,293.9,134.2,293.5"/>
						<path class="st6" d="M137.7,294.6l5.1,0.3c0.9,0.2,1.8,0.4,2.6,0.6l-5.1-0.3C139.4,295,138.6,294.8,137.7,294.6"/>
						<path class="st5" d="M140.3,295.1l5.1,0.3c0.8,0.1,1.5,0.2,2.3,0.3l-5.1-0.3C141.8,295.4,141.1,295.3,140.3,295.1"/>
						<path class="st3" d="M142.6,295.4l5.1,0.3c0.5,0,1,0.1,1.5,0.1l-5.1-0.3C143.6,295.5,143.1,295.5,142.6,295.4"/>
					</g>
				</g>
				<g class="st1">
					<defs>
						<path id="SVGID_6_" class="st1" d="M201.2,163.2l5.1,0.3c2.8,24.7,5.5,49.4,8.3,74.1l-5.1-0.3
							C206.7,212.7,203.9,187.9,201.2,163.2z"/>
					</defs>
					<clipPath id="SVGID_7_">
						<use xlink:href="#SVGID_6_"  style="overflow:visible;"/>
					</clipPath>
					<g class="st9">
						<path class="st10" d="M201.2,163.2l5.1,0.3c2.8,24.7,5.5,49.4,8.3,74.1l-5.1-0.3C206.7,212.7,203.9,187.9,201.2,163.2"/>
					</g>
				</g>
				<g class="st1">
					<defs>
						<path id="SVGID_8_" class="st1" d="M140.3,311.5l-5.1-0.3c1.8,0.1,3.6,0.1,5.5,0c8.8-0.4,17.5-2.9,26.2-6.3
							c26.2-10.8,45.8-28.2,42.7-67.6l5.1,0.3c3.1,39.4-16.5,56.8-42.7,67.6c-8.7,3.4-17.4,5.9-26.2,6.3
							C144,311.6,142.1,311.6,140.3,311.5z"/>
					</defs>
					<clipPath id="SVGID_9_">
						<use xlink:href="#SVGID_8_"  style="overflow:visible;"/>
					</clipPath>
					<g class="st11">
						<path class="st12" d="M209.5,237.4l5.1,0.3c0.1,1.2,0.2,2.3,0.2,3.5l-5.1-0.3C209.6,239.7,209.6,238.5,209.5,237.4"/>
						<path class="st13" d="M209.7,240.8l5.1,0.3c0.1,1.8,0.1,3.5,0.1,5.2l-5.1-0.3C209.8,244.3,209.8,242.6,209.7,240.8"/>
						<path class="st14" d="M209.8,246l5.1,0.3c0,1.7-0.1,3.3-0.2,4.9l-5.1-0.3C209.7,249.4,209.8,247.7,209.8,246"/>
						<path class="st15" d="M209.6,251l5.1,0.3c-0.1,1.7-0.3,3.3-0.5,4.9l-5.1-0.3C209.3,254.2,209.5,252.6,209.6,251"/>
						<path class="st16" d="M209.1,255.8l5.1,0.3c-0.2,1.7-0.5,3.4-0.8,5l-5.1-0.3C208.6,259.2,208.9,257.5,209.1,255.8"/>
						<path class="st17" d="M208.3,260.8l5.1,0.3c-0.4,2-0.9,3.9-1.5,5.7l-5.1-0.3C207.4,264.7,207.9,262.8,208.3,260.8"/>
						<path class="st18" d="M206.8,266.6l5.1,0.3c-6.2,19.8-21.5,30.7-40,38.4c-8.7,3.4-17.4,5.9-26.2,6.3c-1.8,0.1-3.6,0.1-5.5,0
							l-5.1-0.3c1.8,0.1,3.6,0.1,5.5,0c8.8-0.4,17.5-2.9,26.2-6.3C185.3,297.3,200.6,286.3,206.8,266.6"/>
					</g>
				</g>
				<g>
					<path class="st19" d="M201.2,163.2c2.8,24.7,5.5,49.4,8.3,74.1c3.1,39.4-16.5,56.8-42.7,67.6c-8.7,3.4-17.4,5.9-26.2,6.3
						c-16.4,0.8-32.9-5.6-49-25.8c-14.9-20.1-29.9-40.2-44.8-60.3C55,219,63.4,213.2,72,207.9c13,21.6,26.1,43.1,39.1,64.7
						c11.1,17.5,23.8,23.6,36.6,23c4.9-0.2,9.8-1.5,14.7-3.4c19.4-7.8,30.3-22.1,25.1-50.1c-5.1-24.7-10.2-49.4-15.3-74.2
						C181.8,165.9,191.4,164.3,201.2,163.2z"/>
				</g>
			</g>
			<g class="st1">
				<g class="st1">
					<defs>
						<path id="SVGID_10_" class="st1" d="M316.3,187.1l5.1,0.3c-2.7-0.1-5.4-0.2-8,0c-27.1,1.3-44.8,17.2-46.1,40
							c-2.1,31.7,16.5,51.8,48.5,64.3c10.7,4.2,22,7.8,30.5,9.1l-5.1-0.3c-8.5-1.3-19.9-4.9-30.5-9.1c-32-12.5-50.6-32.6-48.5-64.3
							c1.3-22.8,19-38.7,46.1-40C310.9,186.9,313.5,186.9,316.3,187.1z"/>
					</defs>
					<clipPath id="SVGID_11_">
						<use xlink:href="#SVGID_10_"  style="overflow:visible;"/>
					</clipPath>
					<g class="st20">
						<path class="st18" d="M316.3,187.1l5.1,0.3c-2.7-0.1-5.4-0.2-8,0c-22.7,1.1-38.9,12.4-44.2,29.5l-5.1-0.3
							c5.4-17.1,21.5-28.4,44.2-29.5C310.9,186.9,313.5,186.9,316.3,187.1"/>
						<path class="st17" d="M264,216.5l5.1,0.3c-0.4,1.3-0.8,2.6-1,4l-5.1-0.3C263.3,219.1,263.6,217.8,264,216.5"/>
						<path class="st16" d="M263,220.5l5.1,0.3c-0.2,1-0.4,2.1-0.5,3.2l-5.1-0.3C262.6,222.6,262.8,221.6,263,220.5"/>
						<path class="st15" d="M262.5,223.7l5.1,0.3c-0.1,0.9-0.2,1.9-0.3,2.9l-5.1-0.3C262.3,225.6,262.4,224.6,262.5,223.7"/>
						<path class="st14" d="M262.2,226.6l5.1,0.3c0,0.1,0,0.3,0,0.4c-0.1,1.4-0.1,2.8-0.2,4.2l-5.1-0.3c0-1.4,0.1-2.8,0.2-4.2
							C262.2,226.9,262.2,226.7,262.2,226.6"/>
						<path class="st13" d="M262,231.2l5.1,0.3c0,1.2,0,2.4,0.1,3.6l-5.1-0.3C262,233.6,262,232.4,262,231.2"/>
						<path class="st12" d="M262.1,234.8l5.1,0.3c0,1.1,0.1,2.1,0.2,3.2l-5.1-0.3C262.2,237,262.1,235.9,262.1,234.8"/>
						<path class="st10" d="M262.3,238l5.1,0.3c0.1,1,0.2,2,0.4,2.9l-5.1-0.3C262.5,240,262.4,239,262.3,238"/>
						<path class="st21" d="M262.7,241l5.1,0.3c0.1,0.9,0.3,1.8,0.5,2.7l-5.1-0.3C262.9,242.8,262.8,241.9,262.7,241"/>
						<path class="st22" d="M263.1,243.6l5.1,0.3c0.2,0.9,0.4,1.7,0.6,2.5l-5.1-0.3C263.5,245.3,263.3,244.5,263.1,243.6"/>
						<path class="st23" d="M263.7,246.2l5.1,0.3c0.2,0.8,0.4,1.6,0.7,2.4l-5.1-0.3C264.1,247.8,263.9,247,263.7,246.2"/>
						<path class="st24" d="M264.3,248.6l5.1,0.3c0.2,0.8,0.5,1.6,0.8,2.4l-5.1-0.3C264.8,250.2,264.6,249.4,264.3,248.6"/>
						<path class="st25" d="M265.1,251l5.1,0.3c0.3,0.8,0.6,1.6,0.9,2.3l-5.1-0.3C265.7,252.6,265.4,251.8,265.1,251"/>
						<path class="st26" d="M266,253.3l5.1,0.3c0.3,0.8,0.7,1.6,1,2.3l-5.1-0.3C266.7,254.9,266.3,254.1,266,253.3"/>
						<path class="st27" d="M267,255.7l5.1,0.3c0.4,0.8,0.8,1.6,1.2,2.4l-5.1-0.3C267.8,257.3,267.4,256.5,267,255.7"/>
						<path class="st28" d="M268.2,258.1l5.1,0.3c0.4,0.8,0.9,1.7,1.4,2.5l-5.1-0.3C269.1,259.7,268.6,258.9,268.2,258.1"/>
						<path class="st3" d="M269.6,260.5l5.1,0.3c0.5,0.9,1.1,1.7,1.7,2.6l-5.1-0.3C270.7,262.3,270.1,261.4,269.6,260.5"/>
						<path class="st5" d="M271.3,263.1l5.1,0.3c0.7,1,1.4,2,2.2,3l-5.1-0.3C272.7,265.1,271.9,264.1,271.3,263.1"/>
						<path class="st6" d="M273.4,266.1l5.1,0.3c0.9,1.2,1.9,2.3,2.9,3.5l-5.1-0.3C275.3,268.4,274.3,267.3,273.4,266.1"/>
						<path class="st7" d="M276.4,269.5l5.1,0.3c1.6,1.7,3.2,3.3,5,4.9l-5.1-0.3C279.6,272.8,277.9,271.2,276.4,269.5"/>
						<path class="st8" d="M281.4,274.4l5.1,0.3c7.8,6.8,17.6,12.3,29.3,16.9c1.2,0.5,2.4,0.9,3.6,1.4l-5.1-0.3
							c-1.2-0.4-2.4-0.9-3.6-1.4C299,286.8,289.1,281.2,281.4,274.4"/>
						<path class="st7" d="M314.3,292.7l5.1,0.3c6.4,2.4,12.9,4.5,18.7,6l-5.1-0.3C327.2,297.2,320.7,295.1,314.3,292.7"/>
						<path class="st6" d="M333,298.7l5.1,0.3c2.6,0.7,5,1.2,7.3,1.6l-5.1-0.3C338,299.8,335.6,299.3,333,298.7"/>
						<path class="st5" d="M340.3,300.2l5.1,0.3c0.3,0.1,0.6,0.1,0.9,0.1l-5.1-0.3C340.9,300.3,340.6,300.3,340.3,300.2"/>
					</g>
				</g>
				<g class="st1">
					<defs>
						<path id="SVGID_12_" class="st1" d="M341.2,300.4l5.1,0.3c-1,4.5-2.1,8.9-3.3,13.3l-5.1-0.3
							C339.1,309.3,340.2,304.8,341.2,300.4z"/>
					</defs>
					<clipPath id="SVGID_13_">
						<use xlink:href="#SVGID_12_"  style="overflow:visible;"/>
					</clipPath>
					<g class="st29">
						<path class="st17" d="M341.2,300.4l5.1,0.3c-1,4.5-2.1,8.9-3.3,13.3l-5.1-0.3C339.1,309.3,340.2,304.8,341.2,300.4"/>
					</g>
				</g>
				<g class="st1">
					<defs>
						<path id="SVGID_14_" class="st1" d="M400.5,211.3l5.1,0.3c-4.4,2.6-8.7,5.2-12.9,7.9l-5.1-0.3
							C391.8,216.5,396.1,213.8,400.5,211.3z"/>
					</defs>
					<clipPath id="SVGID_15_">
						<use xlink:href="#SVGID_14_"  style="overflow:visible;"/>
					</clipPath>
					<g class="st30">
						<path class="st18" d="M400.5,211.3l5.1,0.3c-4.4,2.6-8.7,5.2-12.9,7.9l-5.1-0.3C391.8,216.5,396.1,213.8,400.5,211.3"/>
					</g>
				</g>
				<g class="st1">
					<defs>
						<path id="SVGID_16_" class="st1" d="M312.2,172l5.1,0.3c13.1,0.7,27.3,3.7,41.8,9.6c26.8,10.8,40.9,23.8,46.5,29.7l-5.1-0.3
							c-5.5-6-19.7-18.9-46.5-29.7C339.4,175.7,325.2,172.7,312.2,172z"/>
					</defs>
					<clipPath id="SVGID_17_">
						<use xlink:href="#SVGID_16_"  style="overflow:visible;"/>
					</clipPath>
					<g class="st31">
						<path class="st3" d="M312.2,172l5.1,0.3c1.7,0.1,3.4,0.2,5.2,0.4l-5.1-0.3C315.6,172.2,313.9,172.1,312.2,172"/>
						<path class="st5" d="M317.4,172.4l5.1,0.3c2.8,0.3,5.6,0.6,8.4,1.1l-5.1-0.3C322.9,173,320.1,172.6,317.4,172.4"/>
						<path class="st6" d="M325.8,173.5l5.1,0.3c3.4,0.6,6.9,1.3,10.4,2.2l-5.1-0.3C332.6,174.8,329.2,174.1,325.8,173.5"/>
						<path class="st7" d="M336.1,175.7l5.1,0.3c4.8,1.2,9.7,2.7,14.6,4.6l-5.1-0.3C345.8,178.4,340.9,176.9,336.1,175.7"/>
						<path class="st8" d="M350.7,180.3l5.1,0.3c1.1,0.4,2.2,0.8,3.3,1.3c19.9,8,32.8,17.3,40.4,23.9l-5.1-0.3
							c-7.6-6.7-20.5-15.9-40.4-23.9C352.9,181.1,351.8,180.7,350.7,180.3"/>
						<path class="st7" d="M394.5,205.5l5.1,0.3c2.6,2.3,4.6,4.3,6,5.8l-5.1-0.3C399.1,209.8,397.1,207.8,394.5,205.5"/>
					</g>
				</g>
				<g>
					<path class="st19" d="M301,171.9c16-0.8,34.2,2,53.1,9.6c26.8,10.8,40.9,23.8,46.5,29.7c-4.4,2.6-8.7,5.2-12.9,7.9
						c-7.8-8.1-20.6-17.6-37.7-24.4c-15.3-6-29.4-8.3-41.6-7.8c-27.1,1.3-44.8,17.2-46.1,40c-2.1,31.7,16.5,51.8,48.5,64.3
						c10.7,4.2,22,7.8,30.5,9.1c-1,4.5-2.1,8.9-3.3,13.3c-7.4-1-20.3-5-35.7-10.8c-34.2-13.2-62.7-34.3-64.5-76.6
						c0-19.8,10.1-37.3,31-46.9C277.7,175.2,288.7,172.5,301,171.9z"/>
				</g>
			</g>
		</g>
	</g>
	<g>
		<path d="M138.6,194.3v75.8c0,28.7,12.7,40.8,29.8,40.8c19,0,31.1-12.5,31.1-40.8v-75.8h16.7V269c0,39.3-20.7,55.4-48.4,55.4
			c-26.2,0-46-15-46-54.7v-75.4H138.6z"/>
		<path d="M334.4,318.1c-6.1,3-18.2,6.1-33.8,6.1c-36.1,0-63.2-22.8-63.2-64.7c0-40.1,27.2-67.2,66.8-67.2c15.9,0,26,3.4,30.4,5.7
			l-4,13.5c-6.3-3-15.2-5.3-25.8-5.3c-30,0-49.9,19.2-49.9,52.8c0,31.3,18,51.5,49.2,51.5c10.1,0,20.3-2.1,27-5.3L334.4,318.1z"/>
	</g>
	<g>
		<path class="st32" d="M75,200.8c12.1,22.2,24.3,44.3,36.4,66.5c14.3,24.9,32.8,28.1,50.8,22c19.9-6.8,31.5-20.7,27.6-48.9
			c-4-24.9-8-49.9-12-74.8c9.7-1.6,19.6-2.7,29.4-3.3c1.6,24.8,3.3,49.6,4.9,74.5c1.3,39.5-19.3,55.9-46.1,65.5
			c-25.5,8.7-51.3,9.2-74.8-23.1c-14.1-20.8-28.2-41.6-42.4-62.3C57.3,211.1,66.1,205.7,75,200.8z"/>
		<path class="st32" d="M337.9,319.1c-7.4-1.4-20.2-6-35.4-12.4c-33.9-14.8-61.6-37.3-61.4-79.6c0.9-19.8,11.9-36.8,33.4-45.4
			c21.1-8.6,52.7-8.8,85.8,6.2c26.5,12.1,40.1,25.7,45.4,31.9c-4.5,2.4-9,4.8-13.4,7.3c-7.5-8.5-20-18.5-36.8-26.2
			c-48.9-21.6-86.4-4.9-89.8,28c-3.6,31.6,14.3,52.5,45.9,66.5c10.5,4.7,21.8,8.8,30.3,10.5C340.6,310.4,339.3,314.8,337.9,319.1z"
			/>
	</g>
</g>
</svg>
