<svg id="Layer_1" data-name="Layer 1" xmlns="http://www.w3.org/2000/svg" xmlns:xlink="http://www.w3.org/1999/xlink" viewBox="0 0 512 512"><defs><style>.cls-1{fill:url(#linear-gradient);}.cls-2{fill:url(#linear-gradient-2);}.cls-3{fill:url(#linear-gradient-3);}.cls-4{fill:url(#linear-gradient-4);}.cls-5{fill:url(#linear-gradient-5);}.cls-6{fill:url(#linear-gradient-6);}.cls-7{fill:url(#linear-gradient-7);}.cls-8{fill:url(#linear-gradient-8);}.cls-9{fill:url(#linear-gradient-9);}.cls-10{fill:url(#linear-gradient-10);}.cls-11{fill:url(#linear-gradient-11);}.cls-12{fill:url(#linear-gradient-12);}.cls-13{fill:url(#linear-gradient-13);}.cls-14{fill:url(#linear-gradient-14);}.cls-15{fill:url(#linear-gradient-15);}.cls-16{fill:url(#linear-gradient-16);}.cls-17{fill:url(#linear-gradient-17);}</style><linearGradient id="linear-gradient" x1="180.5" y1="-483.95" x2="180.5" y2="-13.2" gradientTransform="matrix(1, 0, 0, -1, 0, 28.05)" gradientUnits="userSpaceOnUse"><stop offset="0" stop-color="#0067bf"/><stop offset="1" stop-color="#00d4cb"/></linearGradient><linearGradient id="linear-gradient-2" x1="331.5" y1="-442.69" x2="331.5" y2="28.05" xlink:href="#linear-gradient"/><linearGradient id="linear-gradient-3" x1="120.69" y1="167.55" x2="158.02" y2="167.55" gradientTransform="matrix(1, 0, 0, 1, 0, 0)" xlink:href="#linear-gradient"/><linearGradient id="linear-gradient-4" x1="106.68" y1="281.86" x2="405.32" y2="281.86" gradientTransform="matrix(1, 0, 0, 1, 0, 0)" xlink:href="#linear-gradient"/><linearGradient id="linear-gradient-5" x1="139.35" y1="255.52" x2="372.65" y2="255.52" gradientTransform="matrix(1, 0, 0, -1, 0, 514.05)" xlink:href="#linear-gradient"/><linearGradient id="linear-gradient-6" x1="139.35" y1="337.17" x2="158.02" y2="337.17" gradientTransform="matrix(1, 0, 0, -1, 0, 514.05)" xlink:href="#linear-gradient"/><linearGradient id="linear-gradient-7" x1="111.36" y1="181.14" x2="391.31" y2="181.14" gradientTransform="matrix(1, 0, 0, 1, 0, 0)" xlink:href="#linear-gradient"/><linearGradient id="linear-gradient-8" x1="111.36" y1="262.51" x2="242.01" y2="262.51" gradientTransform="matrix(1, 0, 0, -1, 0, 514.05)" xlink:href="#linear-gradient"/><linearGradient id="linear-gradient-9" x1="125.34" y1="237.55" x2="162.68" y2="237.55" gradientTransform="matrix(1, 0, 0, 1, 0, 0)" xlink:href="#linear-gradient"/><linearGradient id="linear-gradient-10" x1="256" y1="204.88" x2="265.33" y2="204.88" gradientTransform="matrix(1, 0, 0, 1, 0, 0)" xlink:href="#linear-gradient"/><linearGradient id="linear-gradient-11" x1="274.66" y1="204.88" x2="283.99" y2="204.88" gradientTransform="matrix(1, 0, 0, 1, 0, 0)" xlink:href="#linear-gradient"/><linearGradient id="linear-gradient-12" x1="256" y1="186.93" x2="349.32" y2="186.93" gradientTransform="matrix(1, 0, 0, 1, 0, 0)" xlink:href="#linear-gradient"/><linearGradient id="linear-gradient-13" x1="256" y1="237.54" x2="316.65" y2="237.54" gradientTransform="matrix(1, 0, 0, 1, 0, 0)" xlink:href="#linear-gradient"/><linearGradient id="linear-gradient-14" x1="256" y1="257.84" x2="265.33" y2="257.84" gradientTransform="matrix(1, 0, 0, -1, 0, 514.05)" xlink:href="#linear-gradient"/><linearGradient id="linear-gradient-15" x1="274.66" y1="256.21" x2="283.99" y2="256.21" gradientTransform="matrix(1, 0, 0, 1, 0, 0)" xlink:href="#linear-gradient"/><linearGradient id="linear-gradient-16" x1="256" y1="274.87" x2="349.32" y2="274.87" gradientTransform="matrix(1, 0, 0, 1, 0, 0)" xlink:href="#linear-gradient"/><linearGradient id="linear-gradient-17" x1="169.02" y1="172.21" x2="229.68" y2="172.21" gradientTransform="matrix(1, 0, 0, 1, 0, 0)" xlink:href="#linear-gradient"/></defs><path class="cls-1" d="M340.37,464.65h0C311.93,476.16,283.54,482,256,482,131.38,482,30,380.62,30,256c0-45.47,14-89.3,40.6-127.55a45,45,0,1,0-23.09-19.32C16.39,152.93,0,203.46,0,256,0,397,115.05,512,256,512c31.42,0,63.59-6.58,95.63-19.54a15,15,0,0,0-11.26-27.81ZM75.69,75.69a15,15,0,1,1,0,21.21h0A15,15,0,0,1,75.69,75.69Z"/><path class="cls-2" d="M512,256C512,115,397,0,256,0c-31.42,0-63.6,6.58-95.63,19.54a15,15,0,1,0,11.26,27.81C200.07,35.84,228.46,30,256,30c124.62,0,226,101.38,226,226,0,45.47-14,89.3-40.6,127.55a45,45,0,1,0,23.09,19.33C495.61,359.08,512,308.54,512,256ZM436.31,436.31a15,15,0,1,1,0-21.21h0A15,15,0,0,1,436.31,436.31Z"/><path class="cls-3" d="M130,153.55h28v-9.33H125.35a4.66,4.66,0,0,0-4.66,4.66h0v42H130Z"/><path class="cls-4" d="M400.64,330.87h-9.33V195.54H382V330.87H284a4.62,4.62,0,0,0-3.31,1.35l-7.94,8h-33.5l-8-8a4.65,4.65,0,0,0-3.27-1.35H130V312.2h-9.28v18.67h-9.33a4.68,4.68,0,0,0-4.73,4.62v23.35a9.35,9.35,0,0,0,9.34,9.35H396a9.35,9.35,0,0,0,9.34-9.35V335.52A4.67,4.67,0,0,0,400.64,330.87Zm-4.66,28H116V340.2H226.09l8,8a4.62,4.62,0,0,0,3.27,1.36h37.28a4.63,4.63,0,0,0,3.31-1.36l7.93-8H396Z"/><path class="cls-5" d="M139.35,316.86a4.67,4.67,0,0,0,4.66,4.67H368a4.67,4.67,0,0,0,4.66-4.67h0V195.54h-9.33V312.2h-224Z"/><path class="cls-6" d="M139.35,167.55v23.33h9.33V172.22H158v-9.33H144A4.66,4.66,0,0,0,139.35,167.55Z"/><path class="cls-7" d="M117,143.81H385.71c3.09,0,5.6,2.09,5.6,4.67h0V213.8c0,2.58-2.51,4.67-5.6,4.67h-140v-9.34H380.11v-56H122.55v56h11.2v9.34H117c-3.1,0-5.6-2.09-5.6-4.67V148.48c0-2.58,2.5-4.67,5.6-4.67Z"/><path class="cls-8" d="M116,302.87H237.34A4.67,4.67,0,0,0,242,298.2h0V204.88a4.67,4.67,0,0,0-4.67-4.66H116a4.66,4.66,0,0,0-4.66,4.66h0v93.36A4.66,4.66,0,0,0,116,302.87Zm12.78-9.33L176.73,253l47.93,40.55Zm103.91-5.41-33.36-28,14.33-11.48,19,18.8Zm-112-78.58H232.67v44.73l-15.35-15.35a4.68,4.68,0,0,0-6.21-.33l-19,15.18-12.37-10.45a4.65,4.65,0,0,0-6,0l-53,44.8Z"/><path class="cls-9" d="M144,218.88a18.67,18.67,0,1,0,18.67,18.67h0A18.66,18.66,0,0,0,144,218.88Zm0,28a9.34,9.34,0,1,1,9.34-9.34h0A9.34,9.34,0,0,1,144,246.88Z"/><rect class="cls-10" x="256" y="200.22" width="9.33" height="9.33"/><rect class="cls-11" x="274.66" y="200.22" width="9.33" height="9.33"/><rect class="cls-12" x="256" y="182.26" width="93.32" height="9.33"/><rect class="cls-13" x="256" y="232.87" width="60.65" height="9.33"/><rect class="cls-14" x="256" y="251.54" width="9.33" height="9.33"/><rect class="cls-15" x="274.66" y="251.54" width="9.33" height="9.33"/><rect class="cls-16" x="256" y="270.2" width="93.32" height="9.33"/><rect class="cls-17" x="169.02" y="167.55" width="60.65" height="9.33"/></svg>