<?xml version="1.0" encoding="utf-8"?>
<!-- Generator: Adobe Illustrator 25.0.0, SVG Export Plug-In . SVG Version: 6.00 Build 0)  -->
<svg version="1.1" id="Layer_1" xmlns="http://www.w3.org/2000/svg" xmlns:xlink="http://www.w3.org/1999/xlink" x="0px" y="0px"
	 viewBox="0 0 21.1 14.1" style="enable-background:new 0 0 21.1 14.1;" xml:space="preserve">
<style type="text/css">
	.st0{fill:url(#SVGID_1_);}
</style>
<linearGradient id="SVGID_1_" gradientUnits="userSpaceOnUse" x1="-1.402443e-02" y1="7.07" x2="21.14" y2="7.07">
	<stop  offset="0" style="stop-color:#00FBFF"/>
	<stop  offset="1" style="stop-color:#006A56"/>
</linearGradient>
<path class="st0" d="M15,1c-1.1,0-2.2,0.3-3.2,0.9C9-0.8,4.5-0.6,1.9,2.3c-2.6,2.9-2.5,7.4,0.4,10c2.7,2.5,6.9,2.5,9.6,0
	c1,0.6,2,0.9,3.2,0.9c3.4,0,6.1-2.7,6.1-6.1S18.4,1,15,1z M9.5,8.4c0.1,1.5-1.1,2.9-2.6,3c-0.1,0-0.3,0-0.4,0
	c-0.8,0.1-1.5-0.2-2.1-0.7c-0.5-0.7-0.8-1.5-0.7-2.3V3.3h2.4v5.1c0,0.5,0.2,0.7,0.5,0.7s0.5-0.2,0.5-0.7V3.3h2.4L9.5,8.4z
	 M17.5,10.4c-0.8,0.7-1.8,1.1-2.8,1c-2.3,0-4.2-1.9-4.2-4.2c0-1.1,0.4-2.2,1.2-3c0.8-0.8,1.9-1.2,3-1.2c1.1,0,2.2,0.4,3,1.2
	c0.6,0.6,1,1.4,1.2,2.3l-2.5,0.2c-0.2-0.8-0.8-1.3-1.6-1.3c-0.5,0-0.9,0.2-1.3,0.5c-0.3,0.4-0.5,0.9-0.5,1.3c0,0.5,0.2,0.9,0.5,1.3
	c0.7,0.7,1.7,0.7,2.4,0.1c0.3-0.4,0.5-0.8,0.5-1.3l2.5,0.1C18.8,8.5,18.3,9.6,17.5,10.4L17.5,10.4z"/>
</svg>
