<svg id="Layer_1" data-name="Layer 1" xmlns="http://www.w3.org/2000/svg" xmlns:xlink="http://www.w3.org/1999/xlink" viewBox="0 0 512 512"><defs><style>.cls-1{fill:url(#linear-gradient);}.cls-2{fill:url(#linear-gradient-2);}.cls-3{fill:url(#linear-gradient-3);}</style><linearGradient id="linear-gradient" x1="180.5" y1="-483.95" x2="180.5" y2="-13.2" gradientTransform="matrix(1, 0, 0, -1, 0, 28.05)" gradientUnits="userSpaceOnUse"><stop offset="0" stop-color="#0067bf"/><stop offset="1" stop-color="#00d4cb"/></linearGradient><linearGradient id="linear-gradient-2" x1="331.5" y1="-442.69" x2="331.5" y2="28.05" xlink:href="#linear-gradient"/><linearGradient id="linear-gradient-3" x1="91" y1="258.05" x2="421" y2="258.05" gradientTransform="translate(512 514.05) rotate(180)" xlink:href="#linear-gradient"/></defs><path class="cls-1" d="M340.37,464.65h0C311.93,476.16,283.54,482,256,482,131.38,482,30,380.62,30,256c0-45.47,14-89.3,40.6-127.55a45,45,0,1,0-23.09-19.32C16.39,152.93,0,203.46,0,256,0,397,115.05,512,256,512c31.42,0,63.59-6.58,95.63-19.54a15,15,0,0,0-11.26-27.81ZM75.69,75.69a15,15,0,1,1,0,21.21h0A15,15,0,0,1,75.69,75.69Z"/><path class="cls-2" d="M512,256C512,115,397,0,256,0c-31.42,0-63.6,6.58-95.63,19.54a15,15,0,1,0,11.26,27.81C200.07,35.84,228.46,30,256,30c124.62,0,226,101.38,226,226,0,45.47-14,89.3-40.6,127.55a45,45,0,1,0,23.09,19.33C495.61,359.08,512,308.54,512,256ZM436.31,436.31a15,15,0,1,1,0-21.21h0A15,15,0,0,1,436.31,436.31Z"/><path class="cls-3" d="M256,91c91,0,165,74,165,165S347,421,256,421,91,347,91,256,165,91,256,91ZM121.84,241h59.45c1.39-36.32,7.78-70.19,18.36-96.64q2.92-7.34,6.24-13.71A135.33,135.33,0,0,0,121.84,241Zm268.32,30H330.71c-1.38,36.32-7.78,70.19-18.36,96.64q-2.93,7.33-6.24,13.71A135.33,135.33,0,0,0,390.16,271ZM312.35,144.36c10.58,26.45,17,60.32,18.36,96.64h59.45a135.32,135.32,0,0,0-84-110.35Q309.41,137,312.35,144.36ZM227.5,356.49c8.39,21,19.57,34.51,28.5,34.51s20.12-13.54,28.5-34.51c9.23-23.08,14.86-53,16.19-85.49H211.31C212.64,303.48,218.27,333.41,227.5,356.49ZM300.69,241c-1.33-32.48-7-62.41-16.19-85.49-8.38-21-19.57-34.51-28.5-34.51s-20.11,13.54-28.5,34.51c-9.23,23.08-14.86,53-16.19,85.49Zm-94.8,140.35q-3.3-6.37-6.24-13.71c-10.58-26.45-17-60.32-18.36-96.64H121.84A135.33,135.33,0,0,0,205.89,381.35Z"/></svg>